<?xml version="1.0"?>
<svg xmlns="http://www.w3.org/2000/svg" xmlns:xlink="http://www.w3.org/1999/xlink" xmlns:svgjs="http://svgjs.com/svgjs" version="1.1" width="512" height="512" x="0" y="0" viewBox="0 0 512 512" style="enable-background:new 0 0 512 512" xml:space="preserve" class=""><g><linearGradient xmlns="http://www.w3.org/2000/svg" id="SVGID_1_" gradientUnits="userSpaceOnUse" x1="256" x2="256" y1="512" y2="0"><stop stop-opacity="1" stop-color="#009efd" offset="0"/><stop stop-opacity="1" stop-color="#2af5e1" offset="0.8976833976833977"/><stop stop-opacity="1" stop-color="#2af5d2" offset="1"/><stop stop-opacity="1" stop-color="#2af5d2" offset="1"/></linearGradient><g xmlns="http://www.w3.org/2000/svg"><g><path d="m216 200h80c33.084 0 60 26.916 60 60h40c0-55.14-44.859-100-100-100h-40-40c-55.141 0-100 44.86-100 100h40c0-33.084 26.916-60 60-60zm120-120c0-44.112-35.888-80-80-80s-80 35.888-80 80 35.888 80 80 80 80-35.888 80-80zm-80 40c-22.056 0-40-17.944-40-40s17.944-40 40-40 40 17.944 40 40-17.944 40-40 40zm-100 212c0-33.084-26.916-60-60-60s-60 26.916-60 60 26.916 60 60 60 60-26.916 60-60zm-60 20c-11.028 0-20-8.972-20-20s8.972-20 20-20 20 8.972 20 20-8.972 20-20 20zm356 40h-36-40c-15.355 0-29.376 5.805-40 15.327-10.624-9.522-24.645-15.327-40-15.327h-40-40c-15.355 0-29.376 5.805-40 15.327-10.624-9.522-24.645-15.327-40-15.327h-40-36c-33.084 0-60 26.916-60 60v60h512v-60c0-33.084-26.916-60-60-60zm-296 80h-116v-20c0-11.028 8.972-20 20-20h76c11.028 0 20 8.972 20 20zm160 0h-120v-20c0-11.028 8.972-20 20-20h80c11.028 0 20 8.972 20 20zm156 0h-116v-20c0-11.028 8.972-20 20-20h76c11.028 0 20 8.972 20 20zm4-140c0-33.084-26.916-60-60-60s-60 26.916-60 60 26.916 60 60 60 60-26.916 60-60zm-60 20c-11.028 0-20-8.972-20-20s8.972-20 20-20 20 8.972 20 20-8.972 20-20 20zm-100-20c0-33.084-26.916-60-60-60s-60 26.916-60 60 26.916 60 60 60 60-26.916 60-60zm-60 20c-11.028 0-20-8.972-20-20s8.972-20 20-20 20 8.972 20 20-8.972 20-20 20z" fill="url(#SVGID_1_)" data-original="url(#SVGID_1_)" style=""/></g></g></g></svg>
