<?xml version="1.0"?>
<svg xmlns="http://www.w3.org/2000/svg" xmlns:xlink="http://www.w3.org/1999/xlink" xmlns:svgjs="http://svgjs.com/svgjs" version="1.1" width="512" height="512" x="0" y="0" viewBox="0 0 512 512" style="enable-background:new 0 0 512 512" xml:space="preserve" class=""><g><linearGradient xmlns="http://www.w3.org/2000/svg" id="SVGID_1_" gradientUnits="userSpaceOnUse" x1="36" x2="476" y1="256" y2="256"><stop stop-opacity="1" stop-color="#9dd6fc" offset="0"/><stop stop-opacity="1" stop-color="#0182fe" offset="0"/><stop stop-opacity="1" stop-color="#49edd5" offset="1"/></linearGradient><path xmlns="http://www.w3.org/2000/svg" d="m256 512c-1.629 0-3.258-.199-4.851-.597-.917-.229-1.814-.523-2.687-.877-62.949-25.203-116.312-68.211-154.329-124.382-38.03-56.193-58.133-121.761-58.133-189.615v-136.529c0-8.127 4.918-15.447 12.443-18.517 4.151-1.694 102.857-41.483 207.557-41.483s203.406 39.789 207.557 41.483c7.525 3.07 12.443 10.39 12.443 18.517v136.529c0 67.83-20.108 133.393-58.151 189.603-38.03 56.191-91.398 99.208-154.33 124.401-.866.352-1.758.643-2.668.87-1.593.398-3.222.597-4.851.597zm-180-438.114v122.643c0 119.981 70.382 226.589 180 273.817 109.618-47.227 180-153.836 180-273.817v-122.644c-28.901-10.239-103.895-33.885-180-33.885s-151.094 23.644-180 33.886zm174.143 232.256 120-120c7.811-7.811 7.811-20.474 0-28.284s-20.475-7.811-28.285 0l-105.858 105.858-45.857-45.858c-7.811-7.811-20.475-7.811-28.285 0s-7.811 20.474 0 28.284l60 60c3.905 3.905 9.024 5.858 14.142 5.858s10.237-1.953 14.143-5.858z" fill="url(#SVGID_1_)" data-original="url(#SVGID_1_)" style=""/></g></svg>
