<svg version="1.1" id="Layer_1" xmlns="http://www.w3.org/2000/svg" xmlns:xlink="http://www.w3.org/1999/xlink" x="0px" y="0px" viewBox="0 0 533 533" style="enable-background:new 0 0 533 533;" xml:space="preserve">
<style type="text/css">
	.st0{fill:url(#SVGID_1_);}
</style>
<linearGradient id="SVGID_1_" gradientUnits="userSpaceOnUse" x1="61.1276" y1="265.8346" x2="465.8638" y2="265.8346">
<stop offset="0.2261" style="stop-color: rgb(25, 145, 209);" id="id_102"></stop>
<stop offset="1" style="stop-color: rgb(30, 204, 201);" id="id_103"></stop>
</linearGradient>
<path class="st0" d="M453.7,16H73.3c-6.7,0-12.2,5.5-12.1,12.3v211.2c0,20.7,12.9,39.3,32.4,46.4L216,330
	c-4.6,33.2-12.8,111.8-12.8,125.2c0,33.4,27,60.4,60.4,60.4c33.4,0,60.4-27,60.4-60.4v-0.1c0-13.1-7.9-89.4-12.6-123.6l122.6-45.8
	c19.2-7.3,31.9-25.7,31.9-46.2V28.5c0.2-6.7-5.2-12.3-11.9-12.5C453.9,16,453.8,16,453.7,16z M86.1,41h78.7v71.7
	c0,6.9,5.6,12.5,12.5,12.5c6.9,0,12.5-5.6,12.5-12.5V41H251v101.8c0,6.9,5.6,12.5,12.5,12.5c6.9,0,12.5-5.6,12.5-12.5V41h61.2v100.5
	c0,6.9,5.6,12.5,12.5,12.5c6.9,0,12.5-5.6,12.5-12.5V41h78.7v143.7H86.1V41z M440.9,239.6c0,10.1-6.2,19.2-15.7,22.8l-130.6,48.7
	c-6.4,2.4-10.3,9-9.2,15.8c4.4,27.7,13.5,116.6,13.5,128.3c0.1,19.6-15.6,35.5-35.2,35.6c-19.6,0.1-35.5-15.6-35.6-35.2
	c0-0.1,0-0.3,0-0.4c0-12.4,9.3-103,13.7-129.4c1.4-7-2.5-14-9.3-16.4L102,262.3c-9.6-3.5-16-12.7-15.9-22.9v-29.8h354.8V239.6z
	 M263.5,480c14.5,0,26.3-11.8,26.3-26.3c0-14.5-11.8-26.3-26.3-26.3c-14.5,0-26.3,11.8-26.3,26.3C237.2,468.2,249,480,263.5,480z
	 M263.5,452.4c0.7,0,1.3,0.6,1.3,1.3c0,0.7-0.6,1.3-1.3,1.3c-0.7,0-1.3-0.6-1.3-1.3C262.2,453,262.8,452.4,263.5,452.4z" id="id_101"></path>
</svg>