<?xml version="1.0"?>
<svg xmlns="http://www.w3.org/2000/svg" xmlns:xlink="http://www.w3.org/1999/xlink" xmlns:svgjs="http://svgjs.com/svgjs" version="1.1" width="512" height="512" x="0" y="0" viewBox="0 0 512 512" style="enable-background:new 0 0 512 512" xml:space="preserve" class=""><g><linearGradient xmlns="http://www.w3.org/2000/svg" id="SVGID_1_" gradientUnits="userSpaceOnUse" x1="256" x2="256" y1="512" y2="0"><stop stop-opacity="1" stop-color="#0182fe" offset="0"/><stop stop-opacity="1" stop-color="#4cf1d3" offset="1"/></linearGradient><g xmlns="http://www.w3.org/2000/svg"><g><g><path d="m451 422c8.284 0 15-6.716 15-15v-392c0-8.284-6.716-15-15-15h-330c-41.355 0-75 33.645-75 75v377c0 33.084 26.916 60 60 60h345c8.284 0 15-6.716 15-15s-6.716-15-15-15c-16.542 0-30-13.458-30-30s13.458-30 30-30zm-51.928 60h-293.072c-16.542 0-30-13.458-30-30s13.458-30 30-30h293.072c-5.123 8.833-8.072 19.075-8.072 30s2.949 21.167 8.072 30zm-293.072-90c-10.925 0-21.167 2.949-30 8.072v-325.072c0-24.813 20.187-45 45-45h315v362zm150-330c-82.71 0-150 67.29-150 150s67.29 150 150 150 150-67.29 150-150-67.29-150-150-150zm0 270c-66.168 0-120-53.832-120-120s53.832-120 120-120 120 53.832 120 120-53.832 120-120 120zm0-60c-8.284 0-15 6.716-15 15s6.716 15 15 15 15-6.716 15-15-6.716-15-15-15zm0-150c-24.813 0-45 20.187-45 45 0 8.284 6.716 15 15 15s15-6.716 15-15c0-8.271 6.729-15 15-15s15 6.729 15 15c0 5.34-2.878 10.322-7.509 13.001-13.873 8.024-22.491 22.957-22.491 38.971v8.028c0 8.284 6.716 15 15 15s15-6.716 15-15v-8.028c0-5.34 2.878-10.322 7.513-13.002 13.87-8.025 22.487-22.957 22.487-38.97 0-24.813-20.187-45-45-45z" fill="url(#SVGID_1_)" data-original="url(#SVGID_1_)" style=""/></g></g></g></g></svg>
